{"title":"Straight.Outta.Compton.2015.WEBRip.480p.x264.AAC-VYTO [P2PDL]","uid":13107994,"size":691083833,"categoryP":"video","categoryS":"movies","magnet":"?xt=urn:btih:fea3e1a8d8cd9cda4643f708b2b958ec8dab49f9&amp;dn=Straight.Outta.Compton.2015.WEBRip.480p.x264.AAC-VYTO+%5BP2PDL%5D&amp;tr=udp%3A%2F%2Ftracker.leechers-paradise.org%3A6969&amp;tr=udp%3A%2F%2Fzer0day.ch%3A1337&amp;tr=udp%3A%2F%2Fopen.demonii.com%3A1337&amp;tr=udp%3A%2F%2Ftracker.coppersurfer.tk%3A6969&amp;tr=udp%3A%2F%2Fexodus.desync.com%3A6969","seeders":3,"leechers":5,"uploader":"VYTOP2PDL","files":7,"time":1451385281,"description":"____    ____ ____    ____ .___________.  ______   \r\n     /   /      /   / |           | /  __    \r\n    /   /      /   /  `---|  |----`|  |  |  | \r\n        /     _    _/       |  |     |  |  |  | \r\n       /        |  |         |  |     |  `--'  | \r\n    __/         |__|         |__|      ______/  \r\n                                                  \r\nPresenting Small Encodes with quality for years!\r\n                                                                                                   \r\n                                                                                                   \r\n\r\nStraight.Outta.Compton.2015.WEBRip.480p.x264.AAC-VYTO\r\n\r\n\r\nGenre: Biography, Drama, Music \nhttp://www.imdb.com/title/tt1398426/\r\n\r\n\r\nFormat                                   : MPEG-4\r\nFile size                                : 652 MiB\r\nDuration                                 : 2h 26mn\r\nOverall bit rate mode                    : Variable\r\n\r\nVideo\r\nFormat                                   : AVC\r\nBit rate                                 : 553 Kbps\r\nWidth                                    : 720 pixels\r\nHeight                                   : 304 pixels\r\nDisplay aspect ratio                     : 2.35:1\r\nFrame rate mode                          : Constant\r\nFrame rate                               : 23.976 fps\r\nBit depth                                : 8 bits\r\nStream size                              : 581 MiB (89%)\r\nWriting library                          : x264\r\n\r\nAudio\r\nFormat                                   : AAC\r\nBit rate mode                            : Variable\r\nBit rate                                 : 64.0 Kbps\r\nChannel(s)                               : 2 channels\r\nChannel positions                        : Front: L R\r\nSampling rate                            : 48.0 KHz\r\nStream size                              : 67.1 MiB (10%)\r\nLanguage                                 : English\r\n\r\nSubtitle                                 : Yes (English)\r\n\r\nScreen Shots: (Click to view)\r\n \nhttp://ititli.com/Ex \nhttp://ititli.com/E7 \nhttp://ititli.com/EC \nhttp://ititli.com/EF \nhttp://ititli.com/EJ \nhttp://ititli.com/E5 \nhttp://ititli.com/EB \nhttp://ititli.com/EN \nhttp://ititli.com/EP\r\n\r\n----------------------------------------------------------------------------------------------------\r\n\r\n\r\nEncoder Notes: Looking For Early Access To Anything You Can Provide WEBDL, DVDScr, DVDR, BluRay,\r\nDirect Audio, Music Releases and Seedboxes. If You Got anything to offer please contact us.\r\n\r\nSupport us by donating BC - 1FgwdzPsd1y25Gea8wP1qni35uGCtmkRCD\r\n\r\nSend some love!\r\nFind us and join us!","torrent":{"xt":"urn:btih:fea3e1a8d8cd9cda4643f708b2b958ec8dab49f9","amp;dn":"Straight.Outta.Compton.2015.WEBRip.480p.x264.AAC-VYTO+%5BP2PDL%5D","amp;tr":["udp%3A%2F%2Ftracker.leechers-paradise.org%3A6969","udp%3A%2F%2Fzer0day.ch%3A1337","udp%3A%2F%2Fopen.demonii.com%3A1337","udp%3A%2F%2Ftracker.coppersurfer.tk%3A6969","udp%3A%2F%2Fexodus.desync.com%3A6969"],"infoHash":"fea3e1a8d8cd9cda4643f708b2b958ec8dab49f9","infoHashBuffer":{"type":"Buffer","data":[254,163,225,168,216,205,156,218,70,67,247,8,178,185,88,236,141,171,73,249]},"announce":[],"urlList":[]}}